# xmcd CD database file
#
# Track frame offsets:
#	150
#	14603
#	30569
#	47560
#	62599
#	77545
#	90792
#	107126
#	124882
#	139394
#	154352
#	173474
#	187106
#	204340
#	213887
#
# Disc length: 3000 seconds
#
# Revision: 0
# Processed by: cddbd v1.5.2PL0 Copyright (c) Steve Scherf et al.
# Submitted via: jetAudio 7
#
DISCID=c20bb60f
DTITLE=Richard van der Westhuyzen - Swerwerspoor
DYEAR=1900
DGENRE=Country
TTITLE0=Warm hier by My
TTITLE1=Isabella
TTITLE2=My hart behoort aan Jou
TTITLE3=Susanna
TTITLE4=Die Klaaglied van Jermia Broodryk
TTITLE5=Man van Staal
TTITLE6=Swerfliedjie
TTITLE7=Die Balade van Klein Dawie Dippenaar
TTITLE8=Twee Sagte Hande
TTITLE9=Geroeste Spykers
TTITLE10=Krygers van die Kermismaan
TTITLE11=London Sentraal
TTITLE12=Gatsak
TTITLE13=Vuurklip: die einde van die aarde
TTITLE14=Die einde
EXTD=
EXTT0=
EXTT1=
EXTT2=
EXTT3=
EXTT4=
EXTT5=
EXTT6=
EXTT7=
EXTT8=
EXTT9=
EXTT10=
EXTT11=
EXTT12=
EXTT13=
EXTT14=
PLAYORDER=
